<mxfile host="app.diagrams.net" modified="2021-05-03T09:18:35.965Z" agent="5.0 (Macintosh)" etag="-39oVyrFmeZSGVzdaTF7" version="14.6.6" type="github" pages="4">
  <diagram id="DMX7ZR0cUQAZhBzKIlZs" name="Main Structure">
    <mxGraphModel dx="1426" dy="723" grid="1" gridSize="10" guides="1" tooltips="1" connect="1" arrows="1" fold="1" page="1" pageScale="1" pageWidth="827" pageHeight="1169" math="0" shadow="0">
      <root>
        <mxCell id="0" />
        <mxCell id="1" parent="0" />
        <mxCell id="1JxM3_afwxFaQtv4awE2-10" style="edgeStyle=orthogonalEdgeStyle;rounded=0;orthogonalLoop=1;jettySize=auto;html=1;fontSize=17;" parent="1" source="1JxM3_afwxFaQtv4awE2-1" target="1JxM3_afwxFaQtv4awE2-8" edge="1">
          <mxGeometry relative="1" as="geometry" />
        </mxCell>
        <mxCell id="1JxM3_afwxFaQtv4awE2-11" style="edgeStyle=orthogonalEdgeStyle;rounded=0;orthogonalLoop=1;jettySize=auto;html=1;fontSize=17;" parent="1" source="1JxM3_afwxFaQtv4awE2-1" target="1JxM3_afwxFaQtv4awE2-9" edge="1">
          <mxGeometry relative="1" as="geometry">
            <Array as="points">
              <mxPoint x="145" y="465" />
              <mxPoint x="580" y="465" />
            </Array>
          </mxGeometry>
        </mxCell>
        <mxCell id="1JxM3_afwxFaQtv4awE2-1" value="&lt;div style=&quot;font-size: 17px&quot;&gt;arrivals&lt;br style=&quot;font-size: 17px&quot;&gt;&lt;/div&gt;" style="rounded=0;whiteSpace=wrap;html=1;fontSize=17;fillColor=#d5e8d4;strokeColor=#82b366;" parent="1" vertex="1">
          <mxGeometry x="90" y="345" width="110" height="60" as="geometry" />
        </mxCell>
        <mxCell id="1JxM3_afwxFaQtv4awE2-2" value="Tables" style="text;html=1;strokeColor=none;fillColor=none;align=center;verticalAlign=middle;whiteSpace=wrap;rounded=0;fontSize=30;fontStyle=1" parent="1" vertex="1">
          <mxGeometry x="347" y="40" width="136" height="40" as="geometry" />
        </mxCell>
        <mxCell id="1JxM3_afwxFaQtv4awE2-12" style="edgeStyle=orthogonalEdgeStyle;rounded=0;orthogonalLoop=1;jettySize=auto;html=1;entryX=0.5;entryY=0;entryDx=0;entryDy=0;fontSize=17;" parent="1" source="1JxM3_afwxFaQtv4awE2-3" target="1JxM3_afwxFaQtv4awE2-8" edge="1">
          <mxGeometry relative="1" as="geometry" />
        </mxCell>
        <mxCell id="1JxM3_afwxFaQtv4awE2-3" value="departures" style="rounded=0;whiteSpace=wrap;html=1;fontSize=17;fillColor=#d5e8d4;strokeColor=#82b366;" parent="1" vertex="1">
          <mxGeometry x="274" y="345" width="106" height="60" as="geometry" />
        </mxCell>
        <mxCell id="1JxM3_afwxFaQtv4awE2-14" style="edgeStyle=orthogonalEdgeStyle;rounded=0;orthogonalLoop=1;jettySize=auto;html=1;entryX=0.5;entryY=0;entryDx=0;entryDy=0;fontSize=17;" parent="1" source="1JxM3_afwxFaQtv4awE2-4" target="1JxM3_afwxFaQtv4awE2-8" edge="1">
          <mxGeometry relative="1" as="geometry">
            <Array as="points">
              <mxPoint x="500" y="465" />
              <mxPoint x="220" y="465" />
            </Array>
          </mxGeometry>
        </mxCell>
        <mxCell id="1JxM3_afwxFaQtv4awE2-4" value="bunkerings" style="rounded=0;whiteSpace=wrap;html=1;fontSize=17;fillColor=#d5e8d4;strokeColor=#82b366;" parent="1" vertex="1">
          <mxGeometry x="450" y="345" width="100" height="60" as="geometry" />
        </mxCell>
        <mxCell id="1JxM3_afwxFaQtv4awE2-13" style="edgeStyle=orthogonalEdgeStyle;rounded=0;orthogonalLoop=1;jettySize=auto;html=1;entryX=0.5;entryY=0;entryDx=0;entryDy=0;fontSize=17;" parent="1" source="1JxM3_afwxFaQtv4awE2-6" target="1JxM3_afwxFaQtv4awE2-9" edge="1">
          <mxGeometry relative="1" as="geometry" />
        </mxCell>
        <mxCell id="1JxM3_afwxFaQtv4awE2-6" value="anchorings" style="rounded=0;whiteSpace=wrap;html=1;fontSize=17;fillColor=#d5e8d4;strokeColor=#82b366;" parent="1" vertex="1">
          <mxGeometry x="610" y="345" width="110" height="60" as="geometry" />
        </mxCell>
        <mxCell id="1JxM3_afwxFaQtv4awE2-8" value="bunkers" style="rounded=0;whiteSpace=wrap;html=1;fontSize=17;fillColor=#fff2cc;strokeColor=#d6b656;" parent="1" vertex="1">
          <mxGeometry x="160" y="525" width="120" height="60" as="geometry" />
        </mxCell>
        <mxCell id="1JxM3_afwxFaQtv4awE2-9" value="attachments" style="rounded=0;whiteSpace=wrap;html=1;fontSize=17;fillColor=#fff2cc;strokeColor=#d6b656;" parent="1" vertex="1">
          <mxGeometry x="520" y="525" width="120" height="60" as="geometry" />
        </mxCell>
        <mxCell id="1JxM3_afwxFaQtv4awE2-16" style="edgeStyle=orthogonalEdgeStyle;rounded=0;orthogonalLoop=1;jettySize=auto;html=1;fontSize=17;" parent="1" source="1JxM3_afwxFaQtv4awE2-15" target="1JxM3_afwxFaQtv4awE2-1" edge="1">
          <mxGeometry relative="1" as="geometry">
            <Array as="points">
              <mxPoint x="415" y="310" />
              <mxPoint x="145" y="310" />
            </Array>
          </mxGeometry>
        </mxCell>
        <mxCell id="1JxM3_afwxFaQtv4awE2-17" style="edgeStyle=orthogonalEdgeStyle;rounded=0;orthogonalLoop=1;jettySize=auto;html=1;entryX=0.5;entryY=0;entryDx=0;entryDy=0;fontSize=17;" parent="1" source="1JxM3_afwxFaQtv4awE2-15" target="1JxM3_afwxFaQtv4awE2-3" edge="1">
          <mxGeometry relative="1" as="geometry">
            <Array as="points">
              <mxPoint x="415" y="310" />
              <mxPoint x="327" y="310" />
            </Array>
          </mxGeometry>
        </mxCell>
        <mxCell id="1JxM3_afwxFaQtv4awE2-18" style="edgeStyle=orthogonalEdgeStyle;rounded=0;orthogonalLoop=1;jettySize=auto;html=1;entryX=0.5;entryY=0;entryDx=0;entryDy=0;fontSize=17;" parent="1" source="1JxM3_afwxFaQtv4awE2-15" target="1JxM3_afwxFaQtv4awE2-4" edge="1">
          <mxGeometry relative="1" as="geometry">
            <Array as="points">
              <mxPoint x="415" y="310" />
              <mxPoint x="500" y="310" />
            </Array>
          </mxGeometry>
        </mxCell>
        <mxCell id="1JxM3_afwxFaQtv4awE2-19" style="edgeStyle=orthogonalEdgeStyle;rounded=0;orthogonalLoop=1;jettySize=auto;html=1;fontSize=17;" parent="1" source="1JxM3_afwxFaQtv4awE2-15" target="1JxM3_afwxFaQtv4awE2-6" edge="1">
          <mxGeometry relative="1" as="geometry">
            <Array as="points">
              <mxPoint x="415" y="310" />
              <mxPoint x="665" y="310" />
            </Array>
          </mxGeometry>
        </mxCell>
        <mxCell id="1JxM3_afwxFaQtv4awE2-15" value="ships" style="rounded=0;whiteSpace=wrap;html=1;fontSize=17;fillColor=#d5e8d4;strokeColor=#82b366;" parent="1" vertex="1">
          <mxGeometry x="360" y="210" width="110" height="60" as="geometry" />
        </mxCell>
        <mxCell id="1JxM3_afwxFaQtv4awE2-21" style="edgeStyle=orthogonalEdgeStyle;rounded=0;orthogonalLoop=1;jettySize=auto;html=1;fontSize=17;" parent="1" source="1JxM3_afwxFaQtv4awE2-20" target="1JxM3_afwxFaQtv4awE2-15" edge="1">
          <mxGeometry relative="1" as="geometry" />
        </mxCell>
        <mxCell id="aixMK43TnW1yTUnJhg45-2" style="edgeStyle=orthogonalEdgeStyle;rounded=0;orthogonalLoop=1;jettySize=auto;html=1;fontSize=17;" edge="1" parent="1" source="1JxM3_afwxFaQtv4awE2-20">
          <mxGeometry relative="1" as="geometry">
            <mxPoint x="530" y="140" as="targetPoint" />
          </mxGeometry>
        </mxCell>
        <mxCell id="1JxM3_afwxFaQtv4awE2-20" value="companies" style="rounded=0;whiteSpace=wrap;html=1;fontSize=17;fillColor=#d5e8d4;strokeColor=#82b366;" parent="1" vertex="1">
          <mxGeometry x="360" y="110" width="110" height="60" as="geometry" />
        </mxCell>
        <mxCell id="aixMK43TnW1yTUnJhg45-1" value="users" style="rounded=0;whiteSpace=wrap;html=1;fontSize=17;fillColor=#d5e8d4;strokeColor=#82b366;" vertex="1" parent="1">
          <mxGeometry x="530" y="110" width="110" height="60" as="geometry" />
        </mxCell>
      </root>
    </mxGraphModel>
  </diagram>
  <diagram id="h-_Gat5gOPL5YRWuhoEs" name="company-ship">
    <mxGraphModel dx="1426" dy="723" grid="1" gridSize="10" guides="1" tooltips="1" connect="1" arrows="1" fold="1" page="1" pageScale="1" pageWidth="827" pageHeight="1169" math="0" shadow="0">
      <root>
        <mxCell id="soFKNbqGlVXvmwt6cqHq-0" />
        <mxCell id="soFKNbqGlVXvmwt6cqHq-1" parent="soFKNbqGlVXvmwt6cqHq-0" />
        <mxCell id="soFKNbqGlVXvmwt6cqHq-2" value="&lt;h1&gt;Company&lt;/h1&gt;&lt;p&gt;* id&lt;br&gt;&lt;/p&gt;&lt;p&gt;* name&lt;/p&gt;&lt;p&gt;* phone&lt;/p&gt;&lt;p&gt;* address&lt;/p&gt;&lt;p&gt;* users&lt;/p&gt;&lt;p&gt;&lt;br&gt;&lt;/p&gt;" style="text;html=1;strokeColor=#666666;fillColor=#f5f5f5;spacing=5;spacingTop=-20;whiteSpace=wrap;overflow=hidden;rounded=0;fontSize=17;fontColor=#333333;" vertex="1" parent="soFKNbqGlVXvmwt6cqHq-1">
          <mxGeometry x="294" y="60" width="240" height="310" as="geometry" />
        </mxCell>
        <mxCell id="soFKNbqGlVXvmwt6cqHq-3" value="&lt;h1&gt;Ship&lt;/h1&gt;&lt;p&gt;* id&lt;br&gt;&lt;/p&gt;&lt;p&gt;* name&lt;/p&gt;&lt;p&gt;* type&lt;br&gt;&lt;/p&gt;&lt;p&gt;* application (web / desktop)&lt;/p&gt;&lt;p&gt;* email&lt;br&gt;&lt;/p&gt;" style="text;html=1;strokeColor=#666666;fillColor=#f5f5f5;spacing=5;spacingTop=-20;whiteSpace=wrap;overflow=hidden;rounded=0;fontSize=17;fontColor=#333333;" vertex="1" parent="soFKNbqGlVXvmwt6cqHq-1">
          <mxGeometry x="60" y="410" width="240" height="310" as="geometry" />
        </mxCell>
        <mxCell id="soFKNbqGlVXvmwt6cqHq-4" value="&lt;h1&gt;User&lt;/h1&gt;&lt;p&gt;* id&lt;br&gt;&lt;/p&gt;&lt;p&gt;* name&lt;/p&gt;&lt;p&gt;* email&lt;br&gt;&lt;/p&gt;&lt;p&gt;&lt;br&gt;&lt;/p&gt;" style="text;html=1;strokeColor=#666666;fillColor=#f5f5f5;spacing=5;spacingTop=-20;whiteSpace=wrap;overflow=hidden;rounded=0;fontSize=17;fontColor=#333333;" vertex="1" parent="soFKNbqGlVXvmwt6cqHq-1">
          <mxGeometry x="520" y="410" width="240" height="310" as="geometry" />
        </mxCell>
      </root>
    </mxGraphModel>
  </diagram>
  <diagram id="QQlsrM-vaduRlZdGIkvf" name="activities">
    <mxGraphModel dx="1426" dy="723" grid="1" gridSize="10" guides="1" tooltips="1" connect="1" arrows="1" fold="1" page="1" pageScale="1" pageWidth="827" pageHeight="1169" math="0" shadow="0">
      <root>
        <mxCell id="mC3ank6kKBZKsQofkNCX-0" />
        <mxCell id="mC3ank6kKBZKsQofkNCX-1" parent="mC3ank6kKBZKsQofkNCX-0" />
        <mxCell id="WZZ-W5W2s1zJSuo2I6eI-0" value="&lt;h1&gt;Arrivals&lt;/h1&gt;&lt;p&gt;* id&lt;/p&gt;&lt;p&gt;* ship_id&lt;br&gt;&lt;/p&gt;&lt;p&gt;* origin &amp;lt;PORT&amp;gt;&lt;br&gt;&lt;/p&gt;&lt;p&gt;* destination &amp;lt;PORT&amp;gt;&lt;/p&gt;&lt;p&gt;* date &amp;lt;Date&amp;gt;&lt;/p&gt;&lt;p&gt;* hasMany bunkers()&lt;br&gt;&lt;/p&gt;&lt;p&gt;* hasMany attachments()&lt;br&gt;&lt;/p&gt;" style="text;html=1;strokeColor=#666666;fillColor=#f5f5f5;spacing=5;spacingTop=-20;whiteSpace=wrap;overflow=hidden;rounded=0;fontSize=17;fontColor=#333333;verticalAlign=top;horizontal=1;" vertex="1" parent="mC3ank6kKBZKsQofkNCX-1">
          <mxGeometry x="116" y="30" width="240" height="330" as="geometry" />
        </mxCell>
        <mxCell id="WZZ-W5W2s1zJSuo2I6eI-1" value="&lt;h1&gt;Departures&lt;/h1&gt;&lt;p&gt;* id&lt;/p&gt;&lt;p&gt;* ship_id&lt;/p&gt;&lt;p&gt;* origin &amp;lt;PORT&amp;gt;&lt;/p&gt;&lt;p&gt;* destination &amp;lt;PORT&amp;gt;&lt;/p&gt;&lt;p&gt;* date &amp;lt;Date&amp;gt;&lt;/p&gt;&lt;p&gt;* hasMany bunkers()&lt;br&gt;&lt;/p&gt;&lt;p&gt;* hasMany attachments()&lt;br&gt;&lt;/p&gt;" style="text;html=1;strokeColor=#666666;fillColor=#f5f5f5;spacing=5;spacingTop=-20;whiteSpace=wrap;overflow=hidden;rounded=0;fontSize=17;fontColor=#333333;verticalAlign=top;horizontal=1;" vertex="1" parent="mC3ank6kKBZKsQofkNCX-1">
          <mxGeometry x="466" y="30" width="240" height="330" as="geometry" />
        </mxCell>
        <mxCell id="WZZ-W5W2s1zJSuo2I6eI-2" value="&lt;h1&gt;&lt;font style=&quot;font-size: 30px&quot;&gt;Bunkerings&lt;/font&gt;&lt;/h1&gt;&lt;p style=&quot;font-size: 16px&quot;&gt;&lt;font style=&quot;font-size: 16px&quot;&gt;* id&lt;/font&gt;&lt;/p&gt;&lt;p style=&quot;font-size: 16px&quot;&gt;&lt;font style=&quot;font-size: 16px&quot;&gt;* ship_id&lt;/font&gt;&lt;/p&gt;&lt;p style=&quot;font-size: 16px&quot;&gt;&lt;font style=&quot;font-size: 16px&quot;&gt;* type {bunker, bunker correction, debunker, ROB}&lt;br&gt;&lt;/font&gt;&lt;/p&gt;&lt;p style=&quot;font-size: 16px&quot;&gt;&lt;font style=&quot;font-size: 16px&quot;&gt;* port&lt;br&gt;&lt;/font&gt;&lt;/p&gt;&lt;p style=&quot;font-size: 16px&quot;&gt;&lt;font style=&quot;font-size: 16px&quot;&gt;* date &amp;lt;Date&amp;gt;&lt;/font&gt;&lt;/p&gt;&lt;p style=&quot;font-size: 16px&quot;&gt;&lt;font style=&quot;font-size: 16px&quot;&gt;* hasMany bunkers()&lt;br&gt;&lt;/font&gt;&lt;/p&gt;&lt;p style=&quot;font-size: 16px&quot;&gt;&lt;font style=&quot;font-size: 16px&quot;&gt;* hasMany attachments()&lt;/font&gt;&lt;br&gt;&lt;/p&gt;" style="text;html=1;strokeColor=#666666;fillColor=#f5f5f5;spacing=5;spacingTop=-33;whiteSpace=wrap;overflow=hidden;rounded=0;fontSize=17;fontColor=#333333;verticalAlign=top;horizontal=1;" vertex="1" parent="mC3ank6kKBZKsQofkNCX-1">
          <mxGeometry x="116" y="380" width="240" height="330" as="geometry" />
        </mxCell>
        <mxCell id="WZZ-W5W2s1zJSuo2I6eI-3" value="&lt;h1&gt;Anchorings&lt;/h1&gt;&lt;p&gt;* id&lt;/p&gt;&lt;p&gt;* ship_id&lt;/p&gt;&lt;p&gt;* start &amp;lt;Date&amp;gt;&lt;/p&gt;&lt;p&gt;* end &amp;lt;Date&amp;gt;&lt;/p&gt;" style="text;html=1;strokeColor=#666666;fillColor=#f5f5f5;spacing=5;spacingTop=-20;whiteSpace=wrap;overflow=hidden;rounded=0;fontSize=17;fontColor=#333333;verticalAlign=top;horizontal=1;" vertex="1" parent="mC3ank6kKBZKsQofkNCX-1">
          <mxGeometry x="466" y="380" width="240" height="330" as="geometry" />
        </mxCell>
      </root>
    </mxGraphModel>
  </diagram>
  <diagram id="YOP6TqiIqPZjjg1V6sur" name="bunkers">
    <mxGraphModel dx="1426" dy="723" grid="1" gridSize="10" guides="1" tooltips="1" connect="1" arrows="1" fold="1" page="1" pageScale="1" pageWidth="827" pageHeight="1169" math="0" shadow="0">
      <root>
        <mxCell id="c6fQHSJcCv1u1uCwsS57-0" />
        <mxCell id="c6fQHSJcCv1u1uCwsS57-1" parent="c6fQHSJcCv1u1uCwsS57-0" />
        <mxCell id="B313FvC47FbEjT_W9tFm-0" value="&lt;h1&gt;Bunkers&lt;br&gt;&lt;/h1&gt;&lt;p&gt;* id&lt;br&gt;&lt;/p&gt;&lt;p&gt;* name&lt;br&gt;&lt;/p&gt;&lt;p&gt;* amount&lt;br&gt;&lt;/p&gt;&lt;p&gt;&lt;br&gt;&lt;/p&gt;" style="text;html=1;strokeColor=#666666;fillColor=#f5f5f5;spacing=5;spacingTop=-20;whiteSpace=wrap;overflow=hidden;rounded=0;fontSize=17;fontColor=#333333;" vertex="1" parent="c6fQHSJcCv1u1uCwsS57-1">
          <mxGeometry x="320" y="110" width="240" height="330" as="geometry" />
        </mxCell>
      </root>
    </mxGraphModel>
  </diagram>
</mxfile>
